<svg width="561" height="592" viewBox="0 0 561 592" fill="none" xmlns="http://www.w3.org/2000/svg">
<g filter="url(#filter0_d_2204_3)">
<path d="M165.848 164.307C165.513 162.966 164.284 161.29 163.082 160.564L155.79 156.233C154.589 155.535 152.494 154.78 151.125 154.557L142.743 153.216C141.374 152.992 139.809 151.763 139.251 150.506L138.245 148.215C137.686 146.958 136.149 145.561 134.836 145.114L130.562 143.689C129.249 143.242 127.377 142.096 126.399 141.09L123.046 137.71C122.068 136.732 120.141 135.922 118.744 135.922H94.4651C93.0682 135.922 91.5595 134.86 91.0566 133.547L89.7994 130.166C89.3244 128.881 87.8437 127.428 86.5306 126.981L81.3619 125.193C80.0488 124.746 78.7357 123.266 78.4284 121.897L78.2607 121.198C77.9534 119.857 76.6962 118.209 75.4669 117.538L68.7058 113.878C67.4765 113.208 66.9736 111.671 67.5603 110.414L69.7116 105.916C70.2983 104.658 71.8908 103.373 73.2598 103.066L85.1616 100.328C86.5026 100.021 88.3186 100.663 89.1847 101.753L90.8052 103.82C91.6713 104.91 93.4593 105.525 94.8004 105.189L96.812 104.686C98.153 104.351 99.4661 102.954 99.7176 101.585L100.081 99.6295C100.332 98.2606 101.478 96.5284 102.623 95.7461L119.582 84.3192C120.727 83.5369 121.398 81.8047 121.035 80.4637L119.275 73.7025C118.939 72.3615 119.777 71.2719 121.174 71.2998L146.738 71.663C148.135 71.691 149.169 70.5734 149.057 69.1765L148.163 57.3864C148.051 56.0174 146.878 54.5926 145.537 54.2294L143.944 53.8103C142.603 53.4471 141.374 52.0222 141.234 50.6532L140.927 47.9152C140.787 46.5462 139.502 45.4566 138.133 45.5405L125.477 46.1551C124.08 46.211 122.488 47.3006 121.873 48.5578L120.56 51.3237C119.973 52.581 118.381 53.3912 117.012 53.1398L108.155 51.4914C106.786 51.2399 105.78 49.8989 105.92 48.5299L106.283 44.9258C106.423 43.5568 107.596 42.0202 108.909 41.5452L115.838 38.9749C117.151 38.4999 118.688 37.0751 119.303 35.8458L125.281 23.5528C125.896 22.2956 125.253 21.2898 123.857 21.2898H92.7609C91.364 21.2898 89.4082 22.072 88.4025 23.022L84.7425 26.4584C83.7367 27.4083 81.781 28.0788 80.412 27.9391L14.7005 21.5412C13.3315 21.4015 12.3536 22.4073 12.5213 23.8042L14.002 34.7562C14.1976 36.1252 13.1918 37.2427 11.8228 37.2427H6.51447C5.11754 37.2427 4 38.3882 4 39.7572V47.2168C4 48.6137 4.94991 50.3459 6.12333 51.0723L10.0627 53.5588C11.2361 54.3132 13.3315 54.8999 14.7005 54.8999H17.4105C18.8074 54.8999 19.9809 53.7544 20.0647 52.3854L20.2044 49.6474C20.2882 48.2505 21.4896 47.2168 22.8585 47.3006L38.0851 48.2784C39.482 48.3623 41.298 49.3401 42.1362 50.4297L46.3828 55.9336C47.221 57.0232 47.7518 59.0627 47.5563 60.4317L46.5505 67.5281C46.3549 68.8971 45.0697 70.2382 43.7287 70.4896L39.6217 71.2719C38.2527 71.5233 37.1352 72.8644 37.1072 74.2613L36.744 100.691C36.7161 102.088 37.5263 103.988 38.5321 104.966L46.9695 113.096C47.9753 114.046 48.59 115.974 48.3665 117.343L47.8915 120.136C47.668 121.505 48.562 122.93 49.9031 123.294L67.0294 127.987C68.3705 128.35 69.7954 129.747 70.1865 131.06L70.9129 133.491C71.304 134.832 72.7569 135.894 74.1538 135.894H76.8638C78.2607 135.894 79.5739 137.011 79.8253 138.38L80.2444 140.811C80.4958 142.18 81.809 143.298 83.2059 143.298H87.6481C89.045 143.298 90.3582 144.415 90.6096 145.784L91.4757 150.729C91.7272 152.098 90.7772 153.216 89.3803 153.216H88.8215C87.4246 153.216 86.1674 154.333 86.0277 155.73L84.8822 165.816C84.7146 167.185 85.4689 169.029 86.5306 169.923L94.7166 176.628C95.7783 177.494 96.6723 179.366 96.6723 180.735V190.793C96.6723 192.19 97.5663 194.006 98.6559 194.844L104.16 199.091C105.249 199.929 106.227 201.773 106.339 203.142L108.993 241.222C109.077 242.591 110.083 244.407 111.172 245.245L114.05 247.397C115.168 248.235 116.062 250.051 116.062 251.42V261.478C116.062 262.875 117.095 264.439 118.381 264.97L129.249 269.496C130.534 270.027 131.847 269.356 132.182 268.015L133.97 260.835C134.306 259.494 133.691 257.678 132.601 256.84L130.534 255.22C129.444 254.353 128.634 252.537 128.718 251.141L130.115 229.879C130.199 228.482 131.065 226.555 132.043 225.577L153.527 203.729C154.505 202.751 155.287 200.795 155.287 199.398V188.474C155.287 187.077 156.07 185.122 157.02 184.116L166.072 174.421C167.022 173.415 167.525 171.488 167.217 170.119L165.848 164.307ZM135.451 25.0615C136.122 26.2628 136.373 28.3582 136.01 29.6993L134.138 36.5163C133.775 37.8573 134.585 39.1146 135.954 39.3381L142.492 40.3718C143.861 40.5953 145.816 40.0086 146.822 39.0587L147.437 38.4999C148.442 37.55 149.281 35.6502 149.281 34.2533V30.0904C149.281 28.6935 148.247 27.1289 146.962 26.5702L142.072 24.4468C140.815 23.8881 140.201 22.4073 140.759 21.1221L141.206 20.0605C141.765 18.7753 143.274 17.3784 144.587 16.9034L159.171 11.8186C160.484 11.3716 162.3 10.1423 163.222 9.08061L164.2 7.96306C165.122 6.92933 165.541 4.97363 165.122 3.66052L164.731 2.3474C164.34 1.00635 162.998 0.447583 161.769 1.11811L153.946 5.22508C152.717 5.86767 150.594 6.37056 149.197 6.34262L135.507 6.11911C134.11 6.09118 132.657 7.18078 132.294 8.49389L130.925 13.1596C130.534 14.5007 130.757 16.5681 131.428 17.7974L135.451 25.0615ZM205.8 8.82916L183.338 3.01793C181.997 2.68267 180.013 3.10175 178.923 3.96784L167.832 12.7964C166.742 13.6625 164.787 14.7242 163.473 15.1433L155.986 17.5739C154.673 17.993 153.583 19.4458 153.583 20.8148C153.583 22.1838 154.729 23.2734 156.098 23.2734H159.953C161.35 23.2734 162.188 24.363 161.853 25.7041L158.64 38.3323C158.305 39.6734 158.417 41.8526 158.892 43.1377L161.629 50.6812C162.104 51.9943 163.613 53.0559 165.01 53.0559H167.636C169.033 53.0559 170.737 52.0781 171.464 50.9047L180.488 36.1531C181.214 34.9797 182.891 33.6666 184.204 33.2475L205.8 26.4584C207.113 26.0393 208.203 24.5586 208.203 23.1896V11.9583C208.231 10.5893 207.141 9.16442 205.8 8.82916ZM227.313 38.6396L229.492 35.2591C230.247 34.0856 229.8 32.7166 228.514 32.2138L224.296 30.5374C223.011 30.0345 221.39 30.5933 220.72 31.7947L219.183 34.5047C218.512 35.7061 218.959 37.2148 220.189 37.8573L223.709 39.6454C224.938 40.2601 226.559 39.813 227.313 38.6396ZM246.73 61.689C247.513 62.8344 248.798 62.8065 249.58 61.661L250.334 60.5155C251.089 59.3701 250.921 57.6099 249.943 56.6321L248.155 54.844C247.177 53.8662 245.781 54.0338 245.054 55.2072L245.026 55.2631C244.3 56.4365 244.356 58.3363 245.166 59.4818L246.73 61.689ZM255.699 68.031H255.922C257.319 68.031 259.051 67.0811 259.834 65.9077L260.756 64.5108C261.51 63.3373 262.097 61.2699 262.041 59.873L261.678 51.0444C261.622 49.6474 260.56 49.0048 259.303 49.5915L258.018 50.2062C256.76 50.7929 255.727 52.4133 255.727 53.8103V56.7718C255.727 58.1687 255.168 60.0126 254.469 60.9067C253.771 61.8007 253.212 63.6447 253.212 65.0416V65.5165C253.184 66.8855 254.302 68.031 255.699 68.031ZM556.653 41.3776L552.546 34.9517C551.792 33.7783 550.06 32.9122 548.663 32.996L525.837 34.4488C524.44 34.5327 522.54 33.7783 521.59 32.7725L516.17 27.0731C515.22 26.0673 513.32 25.0615 511.951 24.81L480.185 19.3341C478.816 19.1106 476.581 19.1385 475.24 19.4179L450.235 24.7262C448.866 25.0056 446.854 24.5586 445.765 23.7204L433.5 14.4728C432.382 13.6346 430.343 12.9641 428.974 12.9641H381.562C380.165 12.9641 378.098 13.5787 376.924 14.3331L369.297 19.2782C368.124 20.0325 367.202 21.7927 367.257 23.1616L367.425 30.286C367.453 31.6829 366.391 32.5211 365.05 32.1858L356.892 30.1463C355.551 29.811 353.735 30.4257 352.869 31.5153L347.114 38.7514C346.248 39.841 344.404 40.735 343.035 40.735H327.92C326.523 40.735 324.791 39.7851 324.036 38.6117L318.449 29.811C317.694 28.6376 316.018 27.3245 314.705 26.8775L308.503 24.7541C307.19 24.3071 305.038 24.3071 303.753 24.7821L288.638 30.2022C287.325 30.6771 285.509 31.9064 284.615 32.9402L275.479 43.3612C274.557 44.395 274.529 46.1272 275.395 47.2168L278.497 51.0723C279.363 52.1619 281.207 53.028 282.604 53.028H288.471C289.868 53.028 291.712 52.1619 292.606 51.1002L299.73 42.6628C300.624 41.6011 302.468 40.9585 303.809 41.2659L304.815 41.4894C306.184 41.7687 307.189 43.1377 307.05 44.5347L306.91 46.0154C306.77 47.3844 307.553 49.2563 308.586 50.1503L308.614 50.1783C309.676 51.0723 309.536 52.3575 308.307 53.028L305.625 54.4808C304.396 55.1513 303.278 56.7997 303.138 58.1966L302.803 61.2699C302.663 62.6389 301.406 63.8402 300.009 63.8961L282.576 64.7343C281.179 64.7901 279.754 63.7564 279.391 62.4433L278.916 60.7111C278.552 59.3701 277.1 58.2804 275.731 58.2804H273.076C271.68 58.2804 270.087 59.3142 269.5 60.5714L267.154 65.7401C266.567 66.9973 265.058 68.4501 263.745 68.925L262.823 69.2883C261.538 69.7911 259.75 71.0763 258.884 72.138L256.732 74.7642C255.866 75.8259 255.615 77.7536 256.202 79.0109L257.934 82.7267C258.521 83.9839 257.878 85.1574 256.509 85.3529L250.251 86.1911C248.882 86.3587 248.016 87.616 248.323 88.9849L249.832 95.3549C250.139 96.696 251.508 98.065 252.877 98.3723L259.694 99.9089C261.035 100.216 262.152 99.3222 262.152 97.9532V95.8858C262.152 94.4889 263.13 92.7846 264.304 92.0582L269.305 89.0408C270.478 88.3144 272.574 87.8953 273.943 88.0909L279.027 88.8453C280.396 89.0408 282.045 90.2142 282.687 91.4436L284.811 95.5505C285.453 96.7798 285.286 98.7076 284.448 99.7972L283.917 100.496C283.079 101.613 283.106 103.401 283.973 104.491L284.392 104.994C285.258 106.083 286.822 106.223 287.884 105.329L291.739 102.06C292.801 101.166 293.164 99.406 292.55 98.1768L289.476 92.0023C288.862 90.773 289.281 89.0967 290.398 88.2865L291.656 87.3925C292.773 86.5822 294.338 86.8616 295.092 88.0071L300.596 96.249C301.378 97.3945 303.055 97.9532 304.368 97.4783L310.291 95.327C311.604 94.8521 313.42 95.327 314.314 96.3607L321.941 105.022C322.863 106.055 323.338 108.011 323.031 109.352L322.416 111.867C322.081 113.208 320.712 114.549 319.371 114.828L300.009 118.851C298.64 119.131 296.489 118.963 295.176 118.488L288.052 115.806C286.766 115.331 285.006 114.018 284.14 112.928L279.223 106.558C278.385 105.469 276.541 104.631 275.172 104.742L262.432 105.58C261.035 105.664 259.051 106.475 257.962 107.341L232.817 127.875C231.755 128.742 230.722 130.586 230.554 131.982L229.716 138.548C229.548 139.917 228.57 141.817 227.537 142.739L225.916 144.22C224.882 145.169 224.156 147.041 224.24 148.438L225.022 158.692C225.134 160.061 226.084 161.933 227.173 162.799L240.165 173.527C241.227 174.421 243.238 175.12 244.635 175.12H267.74C269.137 175.12 271.121 175.846 272.182 176.768L276.345 180.316C277.407 181.21 278.329 183.082 278.385 184.479L278.72 191.603C278.776 193 279.81 194.732 280.983 195.459L287.66 199.622C288.834 200.348 289.728 202.08 289.616 203.477L287.884 228.091C287.8 229.46 288.582 231.304 289.672 232.17L294.617 236.137C295.707 237.004 296.517 238.848 296.461 240.217L295.511 259.773C295.455 261.17 296.517 262.372 297.914 262.484L311.548 263.573C312.917 263.685 314.873 262.959 315.85 261.981L330.071 247.76C331.049 246.782 331.859 244.854 331.859 243.457V228.929C331.859 227.532 332.725 225.688 333.815 224.822L342.644 217.642C343.705 216.776 344.711 214.932 344.823 213.535L346.443 195.738C346.583 194.369 347.421 192.386 348.343 191.324L364.855 172.577C365.777 171.543 366.531 169.56 366.531 168.163V160.759C366.531 159.362 365.386 158.245 364.017 158.273L343.286 158.524C341.889 158.552 340.716 157.407 340.66 156.038L340.297 148.466C340.241 147.069 339.319 145.225 338.257 144.331L333.508 140.336C332.446 139.442 331.496 137.57 331.384 136.201L330.909 130.558C330.798 129.189 331.803 127.792 333.144 127.456L338.313 126.227C339.654 125.92 341.582 126.451 342.588 127.4L349.628 134.19C350.634 135.139 351.388 137.067 351.305 138.464L350.718 148.606C350.634 150.003 351.64 151.484 352.953 151.931L356.166 152.992C357.479 153.439 359.295 152.908 360.189 151.847L370.889 139.107C371.784 138.045 371.616 136.453 370.554 135.587L360.86 127.792C359.77 126.926 359.63 125.333 360.524 124.271L363.514 120.723C364.408 119.662 366.224 119.047 367.593 119.382L370.107 119.997C371.448 120.332 373.097 121.589 373.767 122.791L376.393 127.568C377.064 128.797 378.74 129.803 380.137 129.831L388.128 130.027C389.525 130.055 390.642 131.228 390.642 132.597V138.827C390.642 140.224 391.76 141.454 393.157 141.593L400.281 142.292C401.65 142.431 402.572 143.661 402.32 145.002L400.588 154.277C400.337 155.646 400.84 157.63 401.734 158.692L411.875 171.096C412.741 172.158 414.613 173.052 415.982 173.052H417.77C419.167 173.052 420.732 172.018 421.291 170.733L434.422 139.945C434.953 138.66 436.545 137.626 437.942 137.626H439.423C440.82 137.626 442.72 138.464 443.669 139.47L451.464 147.768C452.414 148.774 453.197 150.729 453.197 152.126V161.569C453.197 162.966 453.895 164.978 454.733 166.095L459.371 172.13C460.209 173.22 461.718 173.332 462.696 172.354L464.121 170.957C465.098 169.979 465.07 168.442 464.009 167.548L461.913 165.732C460.852 164.838 460.097 162.966 460.237 161.569L460.349 160.396C460.489 159.027 461.718 157.882 463.115 157.882H463.422C464.819 157.882 466.356 158.943 466.831 160.228L467.389 161.709C467.892 162.994 469.261 163.469 470.435 162.743L476.218 159.195C477.391 158.468 478.369 156.736 478.369 155.367V147.628C478.369 146.231 477.391 144.527 476.19 143.828L473.117 142.012C471.915 141.314 471.133 139.61 471.357 138.241L472.335 132.094C472.558 130.725 473.871 129.747 475.24 129.887L482.085 130.669C483.454 130.837 485.074 129.943 485.633 128.658L490.327 118.488C490.914 117.231 490.662 115.331 489.796 114.241L484.376 107.508C483.51 106.419 482.979 104.435 483.231 103.066L484.46 95.9137C484.683 94.5447 486.024 93.4272 487.393 93.4272H492.143C493.54 93.4272 494.602 92.2817 494.546 90.9127L493.009 60.8229C492.925 59.4259 493.791 57.6099 494.881 56.7718L500.077 52.7766C501.167 51.9384 503.207 51.3237 504.576 51.4355L518.21 52.5251C519.579 52.6369 520.808 53.8662 520.892 55.2351L521.758 68.2545C521.842 69.6515 522.959 71.2439 524.216 71.8027L526.452 72.8085C527.709 73.3952 529.189 72.8085 529.72 71.5233L537.264 53.5588C537.795 52.2737 539.219 50.6532 540.421 49.9548L549.11 44.8141C550.311 44.1156 552.406 43.5289 553.803 43.5289H555.591C556.877 43.5009 557.407 42.551 556.653 41.3776ZM504.268 104.184C503.765 105.469 503.71 107.592 504.156 108.905L505.637 113.236C506.084 114.549 507.593 115.722 508.962 115.834L510.61 115.974C511.979 116.085 513.739 115.247 514.522 114.074L517.511 109.604C518.293 108.458 518.908 106.363 518.908 104.994V89.7393C518.908 88.3424 518.154 86.3587 517.26 85.325L514.801 82.5311C513.879 81.4974 512.063 80.9945 510.75 81.4695L508.85 82.14C507.537 82.587 506.922 84.0119 507.509 85.2691L508.766 88.063C509.325 89.3202 509.381 91.4156 508.878 92.7008L504.268 104.184ZM362.508 214.485L361.865 214.066C360.692 213.312 359.044 213.619 358.177 214.709L347.952 227.812C347.086 228.901 346.834 230.829 347.393 232.114L348.986 235.886C349.516 237.171 351.081 238.4 352.45 238.652L353.26 238.792C354.629 239.043 356.669 238.596 357.814 237.814L362.592 234.461C363.737 233.651 364.659 231.891 364.659 230.494V218.341C364.631 216.972 363.681 215.239 362.508 214.485ZM463.618 193.615H470.127C471.524 193.615 472.642 192.469 472.642 191.1V188.251C472.642 186.854 471.496 185.708 470.127 185.708L465.825 185.652C464.428 185.625 463.059 184.507 462.752 183.166L462.081 180.149C461.774 178.807 460.516 177.215 459.259 176.628L452.275 173.332C451.017 172.745 449.397 173.22 448.643 174.393L448.223 175.064C447.497 176.237 447.19 178.277 447.581 179.618L449.313 185.68C449.704 187.021 451.017 188.614 452.247 189.229L458.84 192.525C460.097 193.112 462.249 193.615 463.618 193.615ZM498.681 185.82L496.669 181.685C496.054 180.428 494.574 179.953 493.344 180.596L486.024 184.451C484.795 185.094 484.432 186.574 485.214 187.72L486.611 189.787C487.393 190.933 489.126 192.19 490.439 192.581L500.944 195.627C502.285 196.018 504.268 195.738 505.358 194.984C506.447 194.258 506.447 192.972 505.33 192.162L501.838 189.62C500.692 188.754 499.267 187.077 498.681 185.82ZM505.106 244.156L508.655 238.428C509.381 237.255 510.079 235.16 510.163 233.763L511.113 221.023C511.225 219.654 510.75 217.502 510.079 216.301L502.285 202.052C501.614 200.823 499.966 200.097 498.625 200.432L497.982 200.6C496.641 200.935 495.523 202.332 495.523 203.701V204.008C495.523 205.405 494.685 206.523 493.624 206.523C492.562 206.523 490.969 205.684 490.048 204.651L489.628 204.176C488.706 203.142 486.835 202.499 485.466 202.723L477.308 204.092C475.939 204.315 474.234 205.489 473.536 206.69L471.217 210.574C470.518 211.775 468.87 213.172 467.613 213.703L458.477 217.53C457.192 218.061 456.158 219.626 456.158 221.023V241.334C456.158 242.731 457.164 244.407 458.365 245.078H458.393C459.622 245.748 461.662 245.916 462.975 245.469L467.11 244.016C468.423 243.569 469.82 242.088 470.239 240.775L470.295 240.636C470.714 239.322 472.167 238.009 473.536 237.73L478.369 236.78C479.738 236.501 481.526 237.199 482.364 238.317L486.89 244.296C487.729 245.413 489.545 246.307 490.942 246.307H501.251C502.648 246.279 504.38 245.329 505.106 244.156ZM518.908 249.939L518.21 249.38C517.12 248.514 515.5 248.682 514.606 249.744L512.985 251.671C512.091 252.733 510.303 253.99 508.99 254.437L505.078 255.834C503.765 256.309 503.011 257.762 503.402 259.103L503.765 260.36C504.157 261.701 505.581 262.567 506.95 262.288L510.666 261.562C512.035 261.282 513.544 260.332 514.019 259.438C514.522 258.544 515.947 257.538 517.232 257.231C518.517 256.924 519.858 255.583 520.193 254.242L520.277 253.878C520.612 252.593 519.998 250.805 518.908 249.939ZM529.217 236.277C528.547 236.277 527.29 236.026 526.452 235.718C525.585 235.411 524.3 236.137 523.602 237.311L522.205 239.658C521.478 240.859 521.674 242.675 522.596 243.681L523.211 244.379C524.133 245.413 525.753 245.497 526.787 244.603L531.005 240.915C532.039 239.993 532.347 238.568 531.676 237.758C531.005 236.976 529.888 236.277 529.217 236.277Z" fill="#DADADA"/>
<path d="M416.323 37.7756L413.602 31.5049C413.255 30.6777 412.294 30.3041 411.467 30.651L405.196 33.3727C404.796 33.5328 404.342 33.5595 403.942 33.3994L397.591 30.8911C396.764 30.5709 395.803 30.9712 395.483 31.7984L392.975 38.1491C392.815 38.5494 392.495 38.8696 392.121 39.0297L385.85 41.7515C385.023 42.0984 384.65 43.059 384.996 43.8862L387.718 50.1569C387.878 50.5571 387.905 51.0108 387.745 51.411L385.237 57.7618C384.916 58.589 385.317 59.5496 386.144 59.8698L392.495 62.3781C392.895 62.5382 393.215 62.8584 393.375 63.2319L396.097 69.5027C396.444 70.3298 397.404 70.7034 398.232 70.3565L404.502 67.6348C404.903 67.4747 405.356 67.448 405.756 67.6081L412.107 70.1164C412.934 70.4366 413.895 70.0363 414.215 69.2091L416.724 62.8584C416.884 62.4581 417.204 62.1379 417.577 61.9778L423.848 59.2561C424.675 58.9092 425.049 57.9486 424.702 57.1214L421.98 50.8507C421.82 50.4504 421.793 49.9968 421.954 49.5965L424.462 43.2458C424.782 42.4186 424.382 41.4579 423.555 41.1377L417.204 38.6295C416.83 38.4694 416.51 38.1758 416.323 37.7756Z" fill="#F4B503"/>
<path d="M406.128 59.8267C411.286 59.1499 414.919 54.4199 414.242 49.2619C413.565 44.104 408.835 40.4713 403.677 41.1481C398.519 41.8249 394.887 46.5549 395.563 51.7129C396.24 56.8708 400.97 60.5035 406.128 59.8267Z" fill="#F9CD15"/>
<path d="M475.188 98.8283C473.507 91.4102 466.889 85.86 458.938 85.8333C454.535 85.8066 450.532 87.4877 447.517 90.2628C443.381 83.325 435.829 78.682 427.184 78.6553C417.978 78.6019 409.973 83.8053 405.997 91.4369C404.076 90.2628 401.807 89.569 399.379 89.5423C393.642 89.5156 388.786 93.2514 387.131 98.4547L475.188 98.8283Z" fill="white"/>
<path d="M174.788 497.171C174.788 497.171 228.001 429.765 259.632 429.985C291.282 430.205 325.755 474.379 370.771 512.116C421.234 554.4 355.35 556.179 351.536 556.527C347.74 556.876 216.523 552.237 214.34 549.963C212.158 547.689 177.117 518.442 177.117 518.442L174.788 497.171Z" fill="#C5DDF9"/>
<path d="M447.779 499.204H450.035V474.285H447.779V499.204Z" fill="#355389"/>
<path d="M448.923 425.933L456.258 485.234H441.588L448.923 425.933Z" fill="#3C8F7C"/>
<path d="M453.598 463.724L443.128 472.709L443.531 469.446L453.268 461.102L453.598 463.724Z" fill="#50BFA5"/>
<path d="M451.984 450.724L445.585 452.924L445.878 450.486L451.709 448.487L451.984 450.724Z" fill="#50BFA5"/>
<path d="M141.58 455.308L148.145 508.265H135.034L141.58 455.308Z" fill="#3C8F7C"/>
<path d="M153.133 463.102L158.12 503.424H148.145L153.133 463.102Z" fill="#3C8F7C"/>
<path d="M163.107 475.093L168.095 515.434H158.12L163.107 475.093Z" fill="#3C8F7C"/>
<path d="M129.332 467.136L135.878 520.093H122.768L129.332 467.136Z" fill="#3C8F7C"/>
<path d="M154.105 483.602C210.949 493.064 296.233 578.055 361.182 578.055C426.131 578.055 440.121 557.719 464.491 562.029C488.842 566.319 521.555 578.055 521.555 578.055L38.8398 579.485C38.8398 579.485 97.2608 474.159 154.105 483.602Z" fill="#86B1F2"/>
<path d="M359.843 458.848L366.408 511.786H353.297L359.843 458.848Z" fill="#3C8F7C"/>
<path d="M375.447 474.433L380.435 514.756H370.459L375.447 474.433Z" fill="#3C8F7C"/>
<path d="M336.133 495.961L341.121 536.283H331.146L336.133 495.961Z" fill="#3C8F7C"/>
<path d="M347.594 470.656L354.141 523.613H341.03L347.594 470.656Z" fill="#3C8F7C"/>
<path d="M411.736 483.602C354.892 493.064 269.608 578.055 204.659 578.055C139.692 578.055 125.719 557.719 101.35 562.029C76.9984 566.319 44.2856 578.055 44.2856 578.055L527.001 579.485C527.001 579.485 468.562 474.159 411.736 483.602Z" fill="#86B1F2"/>
<path d="M392.269 562.956H394.836V534.515H392.269V562.956Z" fill="#355389"/>
<path d="M393.564 479.366L401.926 547.028H385.184L393.564 479.366Z" fill="#3C8F7C"/>
<path d="M398.9 522.494L386.962 532.726L387.421 529.022L398.515 519.487L398.9 522.494Z" fill="#50BFA5"/>
<path d="M397.066 507.659L389.75 510.153L390.098 507.384L396.736 505.11L397.066 507.659Z" fill="#50BFA5"/>
<path d="M421.268 575.081H423.707V532.191H421.268V575.081Z" fill="#355389"/>
<path d="M421.84 455.73L433.905 542.298H409.792L421.84 455.73Z" fill="#3C8F7C"/>
<path d="M433.134 536.797L411.497 529.976L411.827 527.629L432.786 534.248L433.134 536.797Z" fill="#50BFA5"/>
<path d="M429.339 509.457L415 504.928L415.312 502.581L428.973 506.89L429.339 509.457Z" fill="#50BFA5"/>
<path d="M38.8398 579.485C38.8398 579.485 101.166 525.355 181.518 522.036C208.492 520.918 318.989 543.307 412.03 560.892C415.935 561.625 424.389 568.868 428.349 569.62C472.394 577.909 513.45 579.651 526.726 580.182L38.8398 579.485Z" fill="#96D9C9"/>
<path d="M539.8 519.946L539.892 515.288C539.892 511.823 537.251 509.036 534.006 509.036C525.809 509.036 519.153 516.095 519.153 524.805V531.168C519.153 533.955 517.668 536.376 515.504 537.604C513.523 538.705 512.332 540.923 512.332 543.289V546.644C512.332 550.275 513.945 553.667 516.604 555.941C518.163 557.28 519.171 559.315 519.171 561.607V566.356C519.171 571.619 523.187 575.873 528.138 575.873H530.962C535.913 575.873 539.928 571.619 539.928 566.356C539.122 559.718 541.084 555.886 543.357 553.686C546.695 550.458 548.657 545.929 548.657 541.143V540.465C548.657 535.404 546.456 530.673 542.789 527.446C541.12 526.052 539.8 523.742 539.8 519.946Z" fill="#4E9B87"/>
<path d="M549.023 581.392C549.023 581.392 526.139 551.008 511.745 546.35C497.35 541.692 510.92 560.194 510.92 560.194C510.92 560.194 485.377 532.267 476.007 534.779C467.425 537.09 476.007 554.4 476.007 554.4C476.007 554.4 466.325 544.81 454.589 544.81C442.854 544.81 463.666 580.695 463.666 580.695L549.023 581.392Z" fill="#96D9C9"/>
<path d="M476.007 580.714C476.007 580.714 460.365 538.887 441.002 543.728C425.306 547.652 436.473 568.685 435.501 567.731C434.547 566.778 426.131 552.493 412.506 552.493C398.882 552.493 416.687 571.765 416.687 571.765C416.687 571.765 387.678 562.707 385.405 572.224C383.516 580.127 394.06 580.714 394.06 580.714H476.007Z" fill="#3C8F7C"/>
<path d="M118.495 572.902C118.586 572.389 118.623 571.839 118.623 571.307C118.623 565.256 112.957 560.342 105.952 560.342C98.9478 560.342 93.2817 565.256 93.2817 571.307C93.2817 571.857 93.3184 572.389 93.4101 572.902H118.495Z" fill="#3C8F7C"/>
<path d="M132.834 570.207C132.926 569.474 132.962 568.722 132.962 567.952C132.962 559.425 127.296 552.494 120.292 552.494C113.287 552.494 107.621 559.407 107.621 567.952C107.621 568.722 107.658 569.474 107.749 570.207H132.834Z" fill="#50BFA5"/>
<path d="M128.195 579.687C128.104 579.173 128.067 578.623 128.067 578.092C128.067 572.04 133.733 567.126 140.738 567.126C147.742 567.126 153.408 572.04 153.408 578.092C153.408 578.642 153.372 579.173 153.28 579.687H128.195Z" fill="#50BFA5"/>
<path d="M107.934 579.687C107.824 578.954 107.769 578.202 107.769 577.432C107.769 568.905 114.957 561.974 123.832 561.974C132.707 561.974 139.895 568.887 139.895 577.432C139.895 578.202 139.84 578.954 139.73 579.687H107.934Z" fill="#3C8F7C"/>
<path d="M120.255 561.974C115.818 561.974 111.857 564.174 109.253 567.603C107.915 567.292 106.503 567.108 105.036 567.108C97.1693 567.108 90.7881 572.022 90.7881 578.074C90.7881 578.624 90.8431 579.155 90.9348 579.669H134.356C134.448 578.935 134.503 578.184 134.503 577.413C134.503 568.905 128.122 561.974 120.255 561.974Z" fill="#50BFA5"/>
<path d="M65.3351 547.139C61.6128 541.308 60.916 534.285 60.9893 529.407C61.0627 524.108 62.0529 520.147 62.0529 520.11L61.7778 520.019C61.7595 520.055 60.7876 524.053 60.6959 529.389C60.6226 534.321 61.3194 541.418 65.0968 547.322L65.3351 547.139Z" fill="#3C8F7C"/>
<path d="M62.9692 519.12C62.8775 520.312 62.3457 521.32 61.5756 521.944C60.9154 521.119 60.5487 519.964 60.6404 518.772C60.7321 517.58 61.2638 516.571 62.034 515.948C62.6941 516.791 63.0608 517.928 62.9692 519.12Z" fill="#3C8F7C"/>
<path d="M60.439 521.889C61.0808 522.934 61.2642 524.108 61.0625 525.135C60.0906 524.896 59.1554 524.218 58.532 523.191C57.8902 522.146 57.7068 520.972 57.9085 519.946C58.8804 520.184 59.8156 520.862 60.439 521.889Z" fill="#3C8F7C"/>
<path d="M59.0268 525.153C60.0169 525.795 60.6771 526.785 60.9338 527.812C59.9986 528.069 58.8984 527.922 57.9266 527.28C56.9364 526.638 56.2762 525.648 56.0195 524.621C56.9364 524.346 58.0366 524.511 59.0268 525.153Z" fill="#3C8F7C"/>
<path d="M59.4669 529.682C60.2371 530.195 60.7322 531.057 60.8605 532.01C60.0537 532.359 59.1369 532.322 58.3667 531.809C57.5966 531.295 57.1015 530.434 56.9731 529.48C57.7616 529.132 58.6785 529.168 59.4669 529.682Z" fill="#3C8F7C"/>
<path d="M62.6762 524.31C63.5564 523.852 64.5283 523.815 65.3717 524.145C65.1517 525.044 64.5649 525.869 63.6848 526.327C62.8046 526.786 61.8327 526.822 60.9893 526.492C61.2093 525.594 61.7961 524.768 62.6762 524.31Z" fill="#3C8F7C"/>
<path d="M62.5844 527.446C63.4646 526.987 64.4365 526.95 65.2799 527.281C65.0599 528.179 64.4731 529.004 63.593 529.463C62.7128 529.921 61.741 529.958 60.8975 529.628C61.1175 528.711 61.7043 527.904 62.5844 527.446Z" fill="#3C8F7C"/>
<path d="M60.0171 534.652C60.4756 534.762 60.8606 535.073 61.099 535.477C60.7689 535.752 60.3289 535.862 59.8704 535.77C59.412 535.66 59.027 535.348 58.7886 534.945C59.1186 534.67 59.5587 534.542 60.0171 534.652Z" fill="#3C8F7C"/>
<path d="M63.7949 551.246C55.2683 549.211 48.7588 542.885 44.798 537.952C40.5072 532.598 38.1968 527.647 38.1785 527.61L37.8301 527.794C37.8484 527.849 40.1772 532.818 44.4863 538.209C48.4837 543.197 55.0666 549.578 63.7033 551.632L63.7949 551.246Z" fill="#3C8F7C"/>
<path d="M38.2882 525.722C39.1867 527.006 39.4801 528.546 39.2417 529.94C37.9031 529.775 36.6012 529.004 35.6844 527.703C34.7676 526.401 34.4925 524.879 34.7309 523.485C36.0878 523.668 37.3897 524.42 38.2882 525.722Z" fill="#3C8F7C"/>
<path d="M38.0679 531.021C39.5532 531.424 40.7268 532.396 41.3686 533.625C40.2133 534.377 38.7097 534.652 37.2244 534.248C35.7392 533.845 34.5656 532.873 33.9238 531.644C35.079 530.893 36.5827 530.636 38.0679 531.021Z" fill="#3C8F7C"/>
<path d="M39.3335 535.716C40.8372 535.367 42.3224 535.679 43.441 536.449C42.7258 537.66 41.4973 538.613 39.9937 538.961C38.4901 539.31 37.0048 538.998 35.8862 538.228C36.6014 537.018 37.8116 536.064 39.3335 535.716Z" fill="#3C8F7C"/>
<path d="M42.7261 539.969C44.2297 539.621 45.715 539.933 46.8336 540.703C46.1184 541.913 44.8899 542.867 43.3862 543.215C41.8826 543.563 40.3974 543.252 39.2788 542.482C39.9939 541.271 41.2225 540.336 42.7261 539.969Z" fill="#3C8F7C"/>
<path d="M41.7174 532.891C41.644 531.443 42.1208 530.068 42.9276 529.096C43.8261 529.866 44.4495 531.094 44.5229 532.561C44.5962 534.01 44.1195 535.385 43.3127 536.357C42.3958 535.569 41.7907 534.34 41.7174 532.891Z" fill="#3C8F7C"/>
<path d="M45.2557 537.293C45.164 535.844 45.6225 534.469 46.411 533.479C47.3278 534.23 47.9696 535.459 48.0613 536.907C48.1529 538.356 47.6945 539.731 46.906 540.722C45.9892 539.97 45.3474 538.741 45.2557 537.293Z" fill="#3C8F7C"/>
<path d="M48.1899 544.187C48.74 543.821 49.3818 543.747 49.9502 543.931C49.8585 544.536 49.5101 545.104 48.96 545.471C48.4099 545.838 47.7681 545.911 47.1997 545.728C47.2914 545.104 47.6398 544.536 48.1899 544.187Z" fill="#3C8F7C"/>
<path d="M86.386 563.312L86.7527 563.293C86.2209 553.538 89.7966 544.352 92.8955 538.355C96.2512 531.864 99.7901 527.628 99.8268 527.573L99.5518 527.298C99.5151 527.335 95.9578 531.607 92.5655 538.135C89.4666 544.168 85.8542 553.447 86.386 563.312Z" fill="#3C8F7C"/>
<path d="M101.459 527.005C100.615 528.417 99.405 529.297 98.1764 529.554C97.9747 528.069 98.2681 526.418 99.1116 524.988C99.9551 523.576 101.165 522.696 102.394 522.439C102.596 523.924 102.302 525.593 101.459 527.005Z" fill="#3C8F7C"/>
<path d="M96.9479 528.709C97.0029 530.415 96.4895 532.01 95.646 533.147C94.7108 532.193 94.0874 530.726 94.0323 529.003C93.9773 527.297 94.4908 525.702 95.3342 524.565C96.2694 525.519 96.8929 526.986 96.9479 528.709Z" fill="#3C8F7C"/>
<path d="M93.3539 531.754C94.0507 533.221 94.179 534.89 93.8123 536.357C92.6204 536.045 91.5019 535.11 90.8051 533.643C90.1083 532.176 89.9799 530.507 90.3466 529.04C91.5385 529.352 92.6571 530.306 93.3539 531.754Z" fill="#3C8F7C"/>
<path d="M90.8784 539.253C91.2084 539.84 91.3185 540.537 91.2084 541.16C90.695 541.069 90.1999 540.72 89.8699 540.134C89.5398 539.547 89.4298 538.85 89.5398 538.227C90.0532 538.318 90.5483 538.667 90.8784 539.253Z" fill="#3C8F7C"/>
<path d="M89.8144 541.949C90.1445 542.536 90.2545 543.233 90.1445 543.856C89.631 543.765 89.136 543.416 88.8059 542.83C88.4758 542.243 88.3658 541.546 88.4758 540.923C88.9893 541.014 89.4844 541.363 89.8144 541.949Z" fill="#3C8F7C"/>
<path d="M97.9194 533.222C99.1846 533.24 100.285 533.882 101 534.872C100.193 535.844 99.0379 536.449 97.791 536.431C96.5258 536.412 95.4256 535.771 94.7104 534.78C95.4989 533.809 96.6541 533.204 97.9194 533.222Z" fill="#3C8F7C"/>
<path d="M95.8657 537.017C97.1309 537.035 98.2311 537.677 98.9462 538.667C98.1394 539.639 96.9842 540.244 95.7373 540.225C94.4721 540.207 93.3719 539.565 92.6567 538.575C93.4636 537.603 94.6188 536.998 95.8657 537.017Z" fill="#3C8F7C"/>
<path d="M92.4923 542.207C93.3174 542.225 94.0325 542.628 94.491 543.27C93.9592 543.894 93.2074 544.297 92.4006 544.279C91.5754 544.26 90.8603 543.857 90.4019 543.215C90.9153 542.592 91.6671 542.207 92.4923 542.207Z" fill="#3C8F7C"/>
<path d="M54.5722 579.321C54.5722 577.689 64.3823 579.614 65.2075 577.396C66.0326 575.177 56.8092 575.049 56.8092 572.06C56.8092 569.071 61.5034 571.161 64.2723 571.161C67.0228 571.161 58.8263 569.878 58.8263 568.814C58.8263 567.75 61.7052 568.319 61.7052 567.182C61.7052 566.064 46.5957 565.202 48.3743 562.451C50.1347 559.701 58.2578 563.258 60.4949 561.828C62.732 560.397 48.5944 558.839 48.2276 556.73C47.8792 554.603 58.6429 558.545 60.1649 557.024C61.6868 555.502 43.13 550.019 43.9185 545.985C44.6886 541.951 57.9828 551.137 61.3017 550.147C64.6207 549.157 44.5603 535.019 49.2178 529.518C53.8754 524.017 62.787 547.745 65.8309 546.902C68.8748 546.058 62.0169 531.902 65.1341 529.445C68.233 526.988 77.1447 549.377 77.7132 553.961C78.2816 558.564 79.4001 544.078 84.2777 542.372C89.1553 540.685 84.4244 551.339 85.2679 554.603C86.1114 557.849 90.0721 546.26 95.4081 547.122C100.744 547.965 85.763 558.564 87.2483 561.681C88.7335 564.798 100.304 551.302 103.916 554.933C107.547 558.564 89.9804 568.612 90.9523 571.363C91.9058 574.113 102.449 569.401 105.475 572.426C108.501 575.452 94.1612 577.377 92.2542 577.377C90.3472 577.377 83.0858 579.761 90.1821 579.303C97.2418 578.844 54.5722 580.935 54.5722 579.321Z" fill="#3C8F7C"/>
<path d="M82.5361 581.191C82.5361 581.191 94.345 581.833 97.7923 579.651C101.24 577.487 98.5258 575.8 98.5258 575.8C98.5258 575.8 109.454 575.561 109.418 572.976C109.399 570.39 106.741 570.537 106.741 570.537C106.741 570.537 112.26 566.796 111.233 564.449C109.656 560.855 100.671 567.108 100.671 567.108C100.671 567.108 103.623 563.606 101.24 562.799C94.6934 560.562 82.5361 581.191 82.5361 581.191Z" fill="#50BFA5"/>
<path d="M111.232 564.448C112.259 566.777 106.739 570.536 106.739 570.536C106.739 570.536 110.718 570.481 110.076 572.993C109.435 575.506 99.4228 576.349 99.4228 576.349C99.4228 576.349 102.925 577.028 99.4778 579.191C96.0305 581.355 82.5347 581.172 82.5347 581.172L111.232 564.448Z" fill="#96D9C9"/>
<path d="M34.1646 478.083C34.1829 477.442 35.0631 476.947 35.5398 477.515C35.9983 478.083 35.9799 477.698 36.4383 478.927C37.7402 482.429 39.6656 485.822 41.8844 488.792C46.1568 494.477 50.3926 497.337 55.1968 500.179C53.2165 495.723 51.8962 490.956 51.7312 486.152C51.6762 484.41 51.6945 482.594 52.4463 480.981C52.648 480.541 53.4548 480.632 53.5465 481.127C53.9499 483.603 53.3632 485.473 54.1516 489.911C56.0587 500.491 63.6318 511.713 70.9481 519.58C69.5545 506.267 68.8761 491.158 71.3699 477.735C71.7733 475.535 72.4334 473.444 73.0385 471.281C73.1852 470.767 73.9003 470.987 73.8087 471.501C73.6803 472.216 72.4884 481.457 72.4151 482.081C71.2598 492.294 71.4799 503.627 72.3967 513.95C78.0628 506.267 81.8585 497.3 83.6372 487.93C84.1689 485.161 84.2973 482.301 85.0308 479.587C85.1408 479.22 85.7459 479.165 85.8192 479.587C86.571 483.658 85.0674 490.864 83.9672 494.788C81.7301 502.728 78.1545 509.843 73.2769 516.187C73.0935 516.426 81.125 578.532 80.905 579.321C80.5382 580.641 78.2278 581.576 77.8794 579.229C77.7327 578.276 73.3136 540.52 71.3332 523.027C70.5814 522.605 70.1046 521.872 68.1609 519.69C63.6868 514.647 59.2493 508.394 56.297 502.471C54.5184 502.361 41.6827 496.127 35.3198 481.916C35.1364 481.512 34.3113 479.587 34.1829 479.147C34.0546 478.762 34.1462 478.45 34.1646 478.083Z" fill="#184655"/>
<path d="M75.3675 457.949C75.2208 456.042 75.1475 454.08 75.1475 452.1C75.1475 429.912 84.5542 411.942 96.1797 411.942C107.787 411.942 117.212 429.931 117.212 452.1C117.212 454.08 117.139 456.042 116.992 457.949H75.3675Z" fill="#50BFA5"/>
<path d="M51.5843 448.084C51.4376 445.389 51.3643 442.638 51.3643 439.833C51.3643 408.55 60.771 383.191 72.3965 383.191C84.022 383.191 93.4104 408.532 93.4104 439.815C93.4104 442.62 93.3371 445.371 93.1904 448.066H51.5843V448.084Z" fill="#96D9C9"/>
<path d="M59.2678 482.778C59.4145 480.871 59.4879 478.909 59.4879 476.929C59.4879 454.741 50.0811 436.771 38.4556 436.771C26.8484 436.771 17.4233 454.759 17.4233 476.929C17.4233 478.909 17.4967 480.871 17.6434 482.778H59.2678Z" fill="#96D9C9"/>
<path d="M92.934 482.778C93.1174 480.082 93.209 477.332 93.209 474.526C93.209 443.244 81.2718 417.884 66.5474 417.884C51.823 417.884 39.8857 443.244 39.8857 474.526C39.8857 477.332 39.9774 480.082 40.1608 482.778H92.934Z" fill="#50BFA5"/>
<path d="M72.4701 417.884C79.8232 417.884 86.4061 425.934 90.7335 438.55C92.9339 437.394 95.281 436.771 97.7198 436.771C110.776 436.771 121.374 454.759 121.374 476.928C121.374 478.909 121.283 480.871 121.118 482.778H49.0541C48.889 480.082 48.7974 477.332 48.7974 474.526C48.8157 443.244 59.396 417.884 72.4701 417.884Z" fill="#96D9C9"/>
<path d="M36.6573 570.335C36.7306 569.62 36.7673 568.868 36.7673 568.116C36.7673 559.737 31.9997 552.934 26.1136 552.934C20.2275 552.934 15.46 559.737 15.46 568.116C15.46 568.868 15.4966 569.602 15.57 570.335H36.6573Z" fill="#3C8F7C"/>
<path d="M48.7046 566.595C48.778 565.568 48.8146 564.541 48.8146 563.477C48.8146 551.65 44.0471 542.078 38.161 542.078C32.2749 542.078 27.5073 551.668 27.5073 563.477C27.5073 564.541 27.544 565.586 27.6173 566.595H48.7046Z" fill="#50BFA5"/>
<path d="M44.799 579.705C44.7256 578.989 44.689 578.238 44.689 577.486C44.689 569.106 49.4565 562.303 55.3426 562.303C61.2287 562.303 65.9963 569.106 65.9963 577.486C65.9963 578.238 65.9596 578.971 65.8863 579.705H44.799Z" fill="#50BFA5"/>
<path d="M27.7639 579.705C27.6722 578.678 27.6172 577.651 27.6172 576.588C27.6172 564.761 33.6683 555.189 41.113 555.189C48.5761 555.189 54.6089 564.779 54.6089 576.588C54.6089 577.651 54.5539 578.696 54.4622 579.705H27.7639Z" fill="#3C8F7C"/>
<path d="M38.1245 555.189C34.4022 555.189 31.0649 558.233 28.8645 563C27.7459 562.56 26.554 562.322 25.3255 562.322C18.7059 562.322 13.3516 569.125 13.3516 577.505C13.3516 578.256 13.3882 578.99 13.4799 579.723H49.9701C50.0618 578.696 50.0984 577.67 50.0984 576.606C50.0984 564.779 44.7441 555.189 38.1245 555.189Z" fill="#50BFA5"/>
<path d="M239.996 409.116V407.75H235.384V409.116H239.996Z" fill="#F7CC7F"/>
<path d="M245.096 439.785V407.592C245.096 405.468 243.366 403.738 241.242 403.738H234.537C232.413 403.738 230.683 405.468 230.683 407.592V439.785C230.683 441.909 232.413 443.639 234.537 443.639H241.242C243.366 443.639 245.096 441.909 245.096 439.785Z" fill="#F47458"/>
<path d="M237.904 443.639H241.758C243.609 443.639 245.096 442.82 245.096 441.818V405.559C245.096 404.557 244.034 403.738 242.213 403.738H237.904V443.639Z" fill="#B75742"/>
<path d="M238.531 427.8V418.515H236.832V427.8H238.531Z" fill="#1A1A1A"/>
<path d="M258.811 439.725V416.3C258.811 414.146 257.051 412.386 254.897 412.386H248.312C246.158 412.386 244.398 414.146 244.398 416.3V439.725C244.398 441.879 246.158 443.639 248.312 443.639H254.897C257.051 443.639 258.811 441.879 258.811 439.725Z" fill="#355389"/>
<path d="M251.62 443.639H255.473C257.324 443.639 258.811 443.002 258.811 442.213V413.842C258.811 413.053 257.324 412.416 255.473 412.416H251.62V443.639Z" fill="#5184CE"/>
<path d="M253.709 416.573V415.511H249.097V416.573H253.709Z" fill="#F7CC7F"/>
<path d="M252.262 431.239V423.957H250.563V431.239H252.262Z" fill="#1A1A1A"/>
<path d="M183.47 444.155H182.772V451.164H183.47V444.155Z" fill="#13375B"/>
<path d="M266.912 444.155H266.214V451.164H266.912V444.155Z" fill="#13375B"/>
<path d="M236.782 429.226H189.204C186.868 429.226 184.987 431.107 184.987 433.444V439.391C184.987 441.727 186.868 443.609 189.204 443.609H236.782C239.118 443.609 241 441.727 241 439.391V433.444C241.03 431.107 239.118 429.226 236.782 429.226Z" fill="#B75742"/>
<path d="M241.031 436.417V432.564C241.031 430.713 239.878 429.226 238.482 429.226H187.567C186.171 429.226 185.018 430.713 185.018 432.564V436.417H241.031Z" fill="#91342A"/>
<path d="M194.03 434.324H192.118V438.936H194.03V434.324Z" fill="#F7CC7F"/>
<path d="M233.9 434.324H231.988V438.936H233.9V434.324Z" fill="#F7CC7F"/>
<path d="M218.759 435.781H205.712V437.48H218.759V435.781Z" fill="#1A1A1A"/>
<path d="M228.407 414.813H197.609C195.09 414.813 193.088 416.846 193.088 419.334V424.675C193.088 427.193 195.121 429.196 197.609 429.196H228.407C230.925 429.196 232.928 427.163 232.928 424.675V419.365C232.958 416.846 230.925 414.813 228.407 414.813Z" fill="#4E9B87"/>
<path d="M232.958 422.035V418.151C232.958 416.3 232.139 414.813 231.138 414.813H194.878C193.877 414.813 193.058 416.3 193.058 418.151V422.004H232.958V422.035Z" fill="#3C8F7C"/>
<path d="M198.428 419.941H197.063V424.553H198.428V419.941Z" fill="#F7CC7F"/>
<path d="M263.848 443.609L230.865 443.578L230.319 428.893H263.848C267.914 428.893 271.221 432.2 271.221 436.266C271.221 440.332 267.914 443.609 263.848 443.609Z" fill="#FAE0B2"/>
<path d="M237.905 436.266C237.905 440.332 234.871 443.639 231.138 443.639C227.406 443.639 224.372 440.332 224.372 436.266C224.372 432.2 227.406 428.893 231.138 428.893C234.871 428.893 237.905 432.2 237.905 436.266Z" fill="#F7CC7F"/>
<path d="M244.884 444.306C244.58 444.063 244.52 443.639 244.732 443.305C246.977 440.149 247.584 436.781 246.583 433.322C246.037 431.38 245.066 429.924 244.55 429.196C244.338 428.892 244.368 428.498 244.641 428.255C244.944 427.982 245.43 428.012 245.703 428.376C246.31 429.196 247.311 430.804 247.948 432.897C248.768 435.628 249.01 439.785 245.915 444.185C245.673 444.488 245.218 444.549 244.884 444.306Z" fill="#F47458"/>
<path d="M256.96 444.306C256.657 444.063 256.596 443.639 256.809 443.305C259.054 440.149 259.661 436.781 258.66 433.322C258.114 431.38 257.143 429.924 256.627 429.196C256.414 428.892 256.445 428.498 256.718 428.255C257.021 427.982 257.507 428.012 257.78 428.376C258.387 429.196 259.388 430.804 260.025 432.897C260.844 435.628 261.087 439.785 257.992 444.185C257.719 444.488 257.264 444.549 256.96 444.306Z" fill="#F47458"/>
<path d="M236.721 434.93C236.357 432.624 235.113 431.44 234.112 430.864C232.655 430.014 230.744 429.893 229.075 430.53C227.467 431.137 226.192 432.563 225.707 434.202C225.282 435.658 225.586 437.175 226.556 438.419C228.165 440.513 230.653 440.179 231.866 439.663C232.959 439.178 233.778 438.055 233.96 436.811C234.112 435.779 233.626 434.808 232.746 434.232C231.866 433.655 230.744 433.655 229.894 434.232C229.257 434.657 228.62 435.446 229.227 436.993L229.712 436.811C229.318 435.84 229.469 435.142 230.167 434.687C230.865 434.232 231.745 434.232 232.473 434.687C233.202 435.142 233.566 435.931 233.444 436.75C233.293 437.843 232.595 438.814 231.654 439.208C230.592 439.663 228.377 439.967 226.951 438.146C225.859 436.72 225.919 435.324 226.192 434.414C226.617 432.927 227.801 431.622 229.227 431.076C230.774 430.469 232.504 430.591 233.839 431.349C235.113 432.078 235.932 433.352 236.175 435.051C236.509 437.236 236.114 438.965 234.961 440.209C232.807 442.546 228.256 442.516 227.467 442.485C227.74 442.667 228.043 442.849 228.347 443.001H228.377C229.773 443.001 233.293 442.758 235.326 440.543C236.63 439.178 237.085 437.297 236.721 434.93Z" fill="#F47458"/>
<path d="M227.892 419.941H226.526V424.553H227.892V419.941Z" fill="#F7CC7F"/>
<path d="M217.119 421.398H207.834V423.097H217.119V421.398Z" fill="#1A1A1A"/>
<path d="M204.857 414.213L189.173 443.949L189.63 444.19L205.313 414.453L204.857 414.213Z" fill="black"/>
<path d="M222.468 413.985L222.012 414.225L238.11 444.74L238.566 444.5L222.468 413.985Z" fill="black"/>
<path d="M255.609 411.996L255.131 412.19L268.174 444.197L268.652 444.002L255.609 411.996Z" fill="black"/>
<path d="M239.973 403.458L239.486 403.63L253.781 444.146L254.267 443.974L239.973 403.458Z" fill="black"/>
<path d="M270.099 443.609H179.708V444.55H270.099V443.609Z" fill="#13375B"/>
<path d="M116.169 544.772C116.169 544.772 185.139 556.212 185.988 555.726C186.807 555.241 195.758 516.675 195.758 516.675C195.758 516.675 138.714 506.419 137.804 506.419C136.894 506.419 124.483 516.341 124.301 517.009C124.119 517.676 116.169 544.772 116.169 544.772Z" fill="#183658"/>
<path d="M326.596 554.572C328.265 554.724 411.799 552.934 411.799 552.934L405.518 533.727C405.518 533.727 393.927 516.219 387.828 516.522C381.699 516.856 345.318 510.939 339.037 515.309C332.756 519.678 327.142 516.189 324.138 526.627C321.165 537.034 318.828 538.218 321.165 544.498C323.441 550.779 326.596 554.572 326.596 554.572Z" fill="#183658"/>
<path d="M151.003 580.091C166.705 580.091 179.434 567.362 179.434 551.66C179.434 535.958 166.705 523.229 151.003 523.229C135.301 523.229 122.572 535.958 122.572 551.66C122.572 567.362 135.301 580.091 151.003 580.091Z" fill="#1A1A1A"/>
<path d="M151.003 571.443C161.929 571.443 170.786 562.585 170.786 551.659C170.786 540.733 161.929 531.876 151.003 531.876C140.077 531.876 131.219 540.733 131.219 551.659C131.219 562.585 140.077 571.443 151.003 571.443Z" fill="#9E9DA2"/>
<path d="M151.002 564.889C158.309 564.889 164.232 558.966 164.232 551.659C164.232 544.353 158.309 538.43 151.002 538.43C143.696 538.43 137.773 544.353 137.773 551.659C137.773 558.966 143.696 564.889 151.002 564.889Z" fill="#D8D9DD"/>
<path d="M369.926 580.091C385.628 580.091 398.357 567.362 398.357 551.66C398.357 535.958 385.628 523.229 369.926 523.229C354.224 523.229 341.495 535.958 341.495 551.66C341.495 567.362 354.224 580.091 369.926 580.091Z" fill="#1A1A1A"/>
<path d="M369.927 571.443C380.853 571.443 389.711 562.585 389.711 551.659C389.711 540.733 380.853 531.876 369.927 531.876C359.001 531.876 350.144 540.733 350.144 551.659C350.144 562.585 359.001 571.443 369.927 571.443Z" fill="#9E9DA2"/>
<path d="M356.697 551.659C356.697 558.972 362.614 564.889 369.927 564.889C377.239 564.889 383.156 558.972 383.156 551.659C383.156 544.347 377.239 538.43 369.927 538.43C362.614 538.399 356.697 544.347 356.697 551.659Z" fill="#D8D9DD"/>
<path d="M435.194 524.563C432.797 508.724 425.029 505.386 402.029 500.774C376.663 495.707 344.469 479.17 344.469 479.17C344.469 479.17 289.549 452.256 276.107 449.161C262.665 446.066 229.561 446.946 201.767 447.189C173.973 447.401 157.649 455.138 143.539 466.153C129.43 477.167 104.943 485.572 104.943 485.572L100.483 486.361C95.901 487.18 92.5938 491.155 92.5938 495.798V535.122C92.5938 539.582 95.5976 543.466 99.9063 544.619L115.988 548.867C117.293 549.08 118.506 548.169 118.658 546.834C120.418 530.753 134.315 518.524 150.913 518.524C168.542 518.555 183.015 533.028 183.015 550.688C183.015 552.69 182.833 554.663 182.469 556.544C182.105 558.516 183.622 560.306 185.625 560.306H333.546C336.428 560.306 338.643 557.788 338.279 554.936C338.097 553.57 338.006 552.175 338.006 550.748C337.945 533.332 352.055 518.889 369.471 518.524C387.525 518.16 402.272 532.664 402.272 550.657C402.272 551.841 402.211 553.024 402.09 554.177C401.726 557.454 404.275 560.306 407.552 560.306H428.822C432.675 560.306 435.831 557.181 435.831 553.297V532.695C435.77 530.024 435.619 527.263 435.194 524.563Z" fill="#F7CC7F"/>
<path d="M93.534 500.471H111.042C112.529 500.471 113.56 501.988 112.984 503.384L111.011 508.087C109.13 512.577 104.761 515.49 99.906 515.49H93.534C92.29 515.49 91.2583 514.489 91.2583 513.215V502.746C91.2583 501.472 92.29 500.471 93.534 500.471Z" fill="#CF283C"/>
<path d="M407.338 507.754C416.987 509.241 428.093 518.374 428.093 518.374C430.763 521.226 428.548 525.868 424.664 525.626L405.851 524.442C401.937 524.2 398.599 521.529 397.537 517.767C395.686 511.425 397.234 506.206 407.338 507.754Z" fill="#EAFCFC"/>
<path d="M92.6844 536.609C91.4707 536.579 90.6211 537.792 91.0763 538.915C92.3203 542.101 95.0208 544.589 98.4799 545.499L116.504 550.263C117.96 550.506 119.325 549.474 119.507 547.987C119.841 544.923 120.569 542.01 121.631 539.249C121.996 538.308 121.298 537.307 120.327 537.276L92.6844 536.609Z" fill="#EAB054"/>
<path d="M402.393 544.013C401.028 543.982 399.966 545.166 400.148 546.531C400.33 548.048 400.451 549.566 400.451 551.143C400.451 552.478 400.391 553.753 400.239 555.058C399.844 558.699 402.666 561.885 406.307 561.885H429.914C434.192 561.885 437.682 558.395 437.682 554.117V548.018C437.682 546.288 436.286 544.862 434.557 544.832L402.393 544.013Z" fill="#EAB054"/>
<path opacity="0.5" d="M344.498 488.303C344.195 488.121 312.912 470.978 292.187 461.359C271.645 451.862 248.737 452.863 247.766 452.893C245.126 452.833 190.296 451.649 173.456 456.899C156.464 462.178 134.375 486.301 133.434 487.332L133.191 487.606L139.139 515.521L139.776 515.491C157.071 514.52 170.301 519.132 178.068 528.811C183.925 536.124 184.653 543.861 184.653 543.952L184.713 544.62L247.068 546.228H247.796L248.555 546.258L335.456 547.957V547.199C335.881 518.95 344.832 489.487 344.893 489.183L345.075 488.607L344.498 488.303ZM186.018 543.133C185.715 541.039 184.41 534.424 179.252 527.931C173.699 520.952 162.411 512.881 140.322 513.973L134.8 488.061C137.348 485.299 158.285 463.21 173.911 458.325C189.538 453.44 240.362 454.259 247.068 454.38V544.711L186.018 543.133ZM333.939 546.41L248.524 544.741V454.38C252.529 454.259 273.072 454.137 291.581 462.724C310.788 471.615 339.067 487.029 343.285 489.335C342.01 493.553 334.485 520.376 333.939 546.41Z" fill="#FEB546"/>
<path opacity="0.5" d="M91.0757 538.916C92.3197 542.102 95.0203 544.59 98.4793 545.501L116.503 550.264C117.959 550.507 119.325 549.476 119.507 547.989C119.628 546.805 119.81 545.652 120.053 544.53L91.0757 538.916Z" fill="#FEB546"/>
<path opacity="0.5" d="M400.391 552.842C400.36 553.601 400.3 554.329 400.209 555.088C399.814 558.729 402.636 561.915 406.277 561.915H429.884C434.162 561.915 437.652 558.425 437.652 554.147V552.873H400.391V552.842Z" fill="#FEB546"/>
<path d="M339.371 552.843C339.371 551.235 339.492 549.657 339.705 548.11C339.978 546.259 338.582 544.56 336.701 544.499L182.832 540.737C181.164 540.706 179.95 542.284 180.405 543.923C181.194 546.744 181.619 549.718 181.619 552.783C181.619 554.816 181.437 556.788 181.073 558.73C180.708 560.732 182.226 562.614 184.259 562.614H334.819C337.763 562.614 340.008 560.004 339.613 557.061C339.462 555.665 339.371 554.239 339.371 552.843Z" fill="#EAB054"/>
<path opacity="0.5" d="M339.371 552.843C339.371 552.813 339.371 552.782 339.371 552.752H181.65C181.65 554.785 181.468 556.757 181.103 558.699C180.739 560.702 182.257 562.583 184.289 562.583H334.85C337.793 562.583 340.039 559.974 339.644 557.03C339.462 555.665 339.371 554.239 339.371 552.843Z" fill="#FEB546"/>
<path d="M151.61 490.944L236.631 491.733C236.631 491.733 241.85 491.581 242.548 486.696C243.245 481.811 243.185 460.813 243.185 460.813C243.185 460.813 242.578 456.596 238.542 456.535C236.084 456.505 215.542 455.048 195.577 457.476C179.283 459.448 164.202 466.912 152.763 478.352L146.725 484.39C146.725 484.39 142.659 490.853 151.61 490.944Z" fill="#EAFCFC"/>
<path d="M252.651 463.484V485.482C252.651 488.335 254.836 490.701 257.628 490.792L324.442 493.493C325.99 493.554 327.477 492.856 328.357 491.551C329.57 489.791 329.692 486.878 323.714 482.964C313.307 476.198 286.817 461.512 277.017 460.116C270.766 459.206 262.604 458.811 257.506 458.659C254.866 458.568 252.651 460.753 252.651 463.484Z" fill="#EAFCFC"/>
<path d="M164.203 480.657C164.203 480.657 219.608 474.346 220.792 475.438C221.975 476.531 229.682 494.554 231.078 499.47L165.811 498.863L161.229 491.945L164.203 480.657Z" fill="#B75742"/>
<path d="M281.689 485.633C281.689 485.633 286.787 491.671 288.243 498.165L286.635 500.774L283.419 497.376L281.689 485.633Z" fill="#263D60"/>
<path d="M287.121 469.795C286.15 463.423 280.385 458.841 274.377 461.936C273.012 462.634 271.191 464.03 270.251 465.243C267.732 468.49 267.065 472.495 264.455 475.651C265.426 476.379 266.579 477.138 267.944 477.866L269.583 475.681L269.037 478.382C273.072 480.324 278.777 481.902 286.605 481.871C287.576 477.471 287.637 473.193 287.121 469.795Z" fill="#1A1A1A"/>
<path d="M273.618 483.812C273.618 483.812 267.822 483.448 265.547 485.936C263.241 488.424 270.644 508.177 271.039 511.333C271.464 514.519 267.61 520.83 267.61 520.83C267.61 520.83 283.54 528.294 287.454 525.715C287.454 525.715 286.817 500.258 286.423 498.012C285.998 495.737 282.539 486.512 281.689 485.602C280.84 484.722 273.618 483.812 273.618 483.812Z" fill="#355389"/>
<path d="M275.529 476.075C275.529 476.075 275.499 476.257 275.438 476.53C275.165 477.926 274.194 482.538 273.527 483.813C272.707 485.36 276.318 490.245 279.777 489.638C280.809 489.456 278.897 485.148 278.988 484.693C279.17 483.813 279.413 482.629 279.656 481.385C279.808 480.687 279.929 479.989 280.05 479.322C280.415 477.441 280.718 475.924 280.718 475.924L275.529 476.075Z" fill="#F7A491"/>
<path d="M164.627 481.72C164.567 481.325 164.415 480.991 164.202 480.658L155.98 488.911C155.98 488.911 149.79 498.712 163.414 498.863L167.146 498.894L164.627 481.72Z" fill="#B75742"/>
<path opacity="0.3" d="M275.439 476.531C275.5 476.228 275.53 476.076 275.53 476.076L280.719 475.955C280.719 475.955 280.416 477.472 280.051 479.353C279.93 480.021 279.778 480.688 279.657 481.386C278.868 481.265 278.018 480.87 277.169 480.142C276.259 479.353 275.652 478.382 275.288 477.351C275.348 477.047 275.409 476.744 275.439 476.531Z" fill="#F47458"/>
<path d="M279.019 464.302C279.019 464.302 276.591 464.029 275.044 466.002C273.527 467.974 271.858 474.103 275.681 477.41C279.474 480.748 283.236 476.986 283.813 472.98C284.359 469.006 284.572 464.181 279.019 464.302Z" fill="#F7A491"/>
<path d="M284.906 472.951C284.451 473.831 283.693 474.316 283.207 474.043C282.722 473.77 282.691 472.83 283.146 471.95C283.602 471.07 284.36 470.584 284.846 470.857C285.331 471.13 285.361 472.071 284.906 472.951Z" fill="#F7A491"/>
<path d="M279.292 463.666C279.292 463.666 276.015 469.492 273.709 469.735C271.373 470.008 271.069 473.103 271.069 473.103C271.069 473.103 271.919 465.972 274.225 464.607C276.531 463.241 279.292 463.666 279.292 463.666Z" fill="#1A1A1A"/>
<path d="M274.317 471.221C274.499 472.253 274.135 473.194 273.467 473.345C272.8 473.467 272.102 472.738 271.92 471.707C271.738 470.675 272.102 469.735 272.769 469.583C273.437 469.461 274.135 470.19 274.317 471.221Z" fill="#F7A491"/>
<path d="M266.093 512.032C266.093 511.971 268.278 502.656 269.158 500.592C270.038 498.529 273.497 488.941 273.497 488.941L269.036 487.97C269.036 487.97 266.154 495.464 264.849 498.863C263.544 502.261 264.09 508.512 264.03 510.272C264.03 510.302 263.848 511.758 263.848 511.789C263.817 511.971 263.757 512.153 263.757 512.183C263.696 512.274 263.544 512.851 263.544 512.911C263.544 512.972 263.393 513.154 263.362 513.245C263.301 513.336 263.18 514.52 263.15 514.732C263.119 514.914 263.21 515.369 263.21 515.369L263.15 516.158C263.119 516.735 263.726 516.583 263.726 516.583C263.726 516.856 263.817 517.008 263.969 517.068C264.121 517.129 264.303 517.068 264.333 517.099C264.363 517.099 264.363 517.19 264.363 517.19C264.333 517.372 264.546 517.493 264.667 517.524C264.788 517.554 265.031 517.463 265.092 517.372C265.152 517.281 265.213 517.311 265.213 517.311C265.334 517.433 265.85 517.402 265.972 517.25C266.093 517.099 266.184 516.249 266.245 516.158C266.305 516.067 266.396 515.946 266.427 515.824C266.457 515.703 266.852 514.823 266.882 514.671C266.912 514.52 266.639 513.913 266.609 513.549C266.548 513.185 266.214 512.669 266.123 512.487C266.063 512.456 266.093 512.274 266.093 512.032Z" fill="#F48C7F"/>
<path d="M280.84 474.922L277.078 474.74C277.078 474.74 277.078 476.166 278.746 476.288C280.749 476.47 280.84 474.922 280.84 474.922Z" fill="white"/>
<path d="M260.329 477.805L258.964 486.786C258.964 486.786 263.91 497.467 266.883 496.557C269.371 495.768 267.824 486.331 267.824 486.331C267.824 486.331 266.459 481.264 266.883 478.715C267.278 476.136 260.329 477.805 260.329 477.805Z" fill="#F7A491"/>
<path d="M266.883 478.686C267.277 476.137 260.329 477.806 260.329 477.806L260.208 478.565C260.42 479.05 260.663 479.475 260.966 479.809C262.514 481.478 264.941 482.509 267.065 482.57C266.853 481.174 266.731 479.718 266.883 478.686Z" fill="#F47458"/>
<path d="M259.176 465.092C258.994 465.032 257.598 475.318 260.208 478.14C262.817 480.962 267.945 481.902 269.766 479.657C271.799 477.199 271.677 466.124 267.611 463.211C263.545 460.329 259.176 465.092 259.176 465.092Z" fill="#F7A491"/>
<path d="M266.094 457.75C262.938 458.387 260.905 460.329 260.147 461.148C258.721 461.33 256.779 462.119 254.776 465.457C252.318 469.553 254.139 474.104 256.991 476.35C259.874 478.565 259.813 481.144 259.813 481.144L260.268 479.809C260.602 478.807 260.754 477.715 260.632 476.683C260.572 476.046 260.42 475.348 260.177 474.802C259.479 473.315 261.664 472.314 262.271 471.07C262.726 470.129 262.756 467.945 263.515 466.367L264.395 465.153C264.395 465.153 266.428 463.575 268.43 464C270.403 464.425 270.13 456.9 266.094 457.75Z" fill="#13375B"/>
<path d="M262.12 472.89C262.151 474.134 261.574 475.166 260.846 475.196C260.118 475.196 259.511 474.195 259.511 472.951C259.511 471.707 260.057 470.675 260.785 470.645C261.513 470.615 262.12 471.616 262.12 472.89Z" fill="#F7A491"/>
<path d="M266.398 475.773L270.343 475.561C270.343 475.561 270.343 477.078 268.583 477.199C266.489 477.381 266.398 475.773 266.398 475.773Z" fill="white"/>
<path d="M257.841 486.423C258.205 485.756 258.873 485.3 259.631 485.209C262.939 484.906 272.072 484.906 276.745 492.977C277.473 494.252 278.019 495.617 278.383 497.043L279.354 501.079L255.323 500.29L255.353 497.62C255.171 493.736 255.99 489.852 257.841 486.423Z" fill="#3C8F7C"/>
<path d="M314.885 502.565L318.374 488.395C318.617 487.454 318.04 486.483 317.069 486.24C316.129 485.997 315.158 486.574 314.915 487.545L311.274 502.383L314.885 502.565Z" fill="#1A1A1A"/>
<path d="M305.872 502.14C306.874 501.533 307.663 501.018 308.209 500.684C308.239 500.654 310.758 499.44 310.818 499.44C311.182 499.318 311.486 499.197 311.546 499.197C311.728 499.197 312.821 498.833 312.912 498.772C313.003 498.742 313.458 498.742 313.64 498.742C313.822 498.742 315.855 497.71 316.189 497.528C316.523 497.376 317.13 496.77 317.13 496.77L318.434 496.011C319.405 495.465 318.525 494.646 318.525 494.646C318.98 494.373 319.102 494.069 319.041 493.766C318.95 493.462 318.707 493.22 318.677 493.159C318.677 493.098 318.798 493.007 318.798 493.007C319.102 492.855 319.102 492.4 319.011 492.158C318.92 491.915 318.556 491.642 318.343 491.642C318.161 491.611 318.131 491.52 318.131 491.52C318.161 491.187 317.645 490.428 317.281 490.398C316.917 490.367 315.461 491.096 315.279 491.096C315.097 491.096 314.793 491.035 314.581 491.156C314.368 491.247 312.578 491.49 312.275 491.642C311.971 491.793 311.304 492.795 310.818 493.22C310.333 493.675 309.817 494.767 309.665 495.07C309.605 495.192 309.271 495.374 308.907 495.556C308.846 495.617 297.892 499.561 291.429 501.503L305.872 502.14Z" fill="#F7A491"/>
<path d="M271.737 500.774C271.07 496.709 270.22 492.43 269.31 490.428C267.338 486.089 260.693 483.509 257.446 486.21C255.716 487.636 256.445 494.494 257.931 500.41L271.737 500.774Z" fill="#50BFA5"/>
<path d="M175.216 477.199C175.216 477.199 167.085 476.986 164.323 478.837C161.562 480.658 161.896 498.864 161.896 498.864L164.566 499.379C164.566 499.379 165.537 511.911 167.631 512.548C169.724 513.216 183.379 508.998 186.231 505.478C189.083 501.959 180.223 475.985 180.223 475.985L175.216 477.199Z" fill="#3C8F7C"/>
<path d="M189.69 462.755C190.388 460.57 190.873 453.925 191.025 451.65C190.904 451.498 190.327 450.527 190.388 448.615C190.418 447.28 189.508 445.065 190.358 445.217C191.207 445.369 191.268 447.675 191.784 447.28C192.299 446.886 192.542 442.031 193.301 442.152C194.09 442.274 193.544 446.855 193.999 446.491C194.454 446.127 194.484 441.91 195.577 442.122C196.669 442.304 195.091 447.068 195.668 447.189C196.244 447.28 197.185 444.276 198.065 444.428C198.945 444.58 196.608 448.494 196.881 448.312C197.154 448.1 199.036 446.491 199.339 446.855C199.703 447.25 195.334 451.862 195.334 453.045C195.698 456.11 196.426 461.632 195.425 465.122C194.211 469.37 191.116 478.837 191.116 478.837L184.532 477.259C184.532 477.32 188.84 465.365 189.69 462.755Z" fill="#F7A491"/>
<path d="M192.483 448.22C192.817 448.372 193.09 448.584 193.303 448.857C193.333 448.918 194.152 449.677 193.94 450.951C193.818 450.162 193.636 449.282 192.483 448.22Z" fill="#F48C7F"/>
<path d="M150.335 480.748C150.335 480.748 150.517 479.686 149.607 478.048C149.03 476.986 148.878 474.862 148.272 475.317C147.665 475.772 148.575 477.653 148.029 477.532C147.483 477.411 145.359 473.618 144.843 474.042C144.297 474.467 146.542 477.896 146.026 477.805C145.541 477.714 143.842 474.346 143.083 474.922C142.324 475.499 145.419 478.685 145.025 479.019C144.63 479.322 142.719 477.289 142.112 477.744C141.505 478.23 144.843 480.445 144.539 480.384C144.236 480.323 142.173 479.777 142.082 480.202C141.96 480.657 146.299 482.023 146.785 482.994C147.27 483.965 154.704 493.523 156.828 493.553C158.952 493.553 168.48 487.12 169.178 484.996C169.876 482.903 168.996 480.688 167.63 480.384C166.235 480.081 157.344 486.483 156.919 486.392C156.494 486.301 150.335 480.748 150.335 480.748Z" fill="#F7A491"/>
<path d="M148.12 478.442C147.908 478.715 147.787 479.049 147.696 479.383C147.696 479.443 147.362 480.536 148.181 481.507C147.938 480.779 147.635 479.959 148.12 478.442Z" fill="#F48C7F"/>
<path d="M170.393 493.978C170.393 493.978 178.95 500.775 179.89 502.171C180.588 503.202 178.252 514.915 178.252 514.915C178.252 514.915 174.853 515.006 173.306 513.822C173.306 513.822 174.247 505.721 173.822 505.417C173.427 505.114 164.021 500.927 164.021 500.927L164.628 496.133L170.393 493.978Z" fill="#B75742"/>
<path d="M186.839 469.491C186.839 469.491 188.325 469.765 193.393 475.287L187.506 487.272L182.075 477.32L186.839 469.491Z" fill="#9BC1F9"/>
<path d="M177.28 477.926C177.28 477.926 181.134 477.077 182.499 476.409C183.865 475.742 196.396 505.295 193.241 506.327C186.626 508.512 169.482 514.277 169.482 514.277C169.482 514.277 168.997 512.578 169.604 509.452C170.696 504.051 170.332 492.005 170.089 489.912C169.968 488.668 162.655 492.248 162.655 492.248L159.772 482.902C159.772 482.902 168.117 480.05 170.908 479.17C171.727 478.897 177.28 477.926 177.28 477.926Z" fill="#9BC1F9"/>
<path d="M191.572 496.223C189.995 491.338 179.648 477.35 179.557 477.198L181.256 476.045C181.62 476.592 190.086 488.486 191.724 493.644L191.572 496.223Z" fill="#3C8F7C"/>
<path d="M169.088 505.265L168.026 503.9C168.087 503.839 175.308 498.074 175.521 491.672C175.703 485.209 170.514 478.988 170.453 478.928L171.788 477.805C172.031 478.078 177.493 484.571 177.28 491.732C177.038 498.924 169.422 505.022 169.088 505.265Z" fill="#3C8F7C"/>
<path d="M175.429 458.174C175.429 458.174 178.494 455.898 181.376 459.6C183.682 462.543 183.379 461.603 184.532 463.09C185.685 464.546 187.414 464.667 187.657 467.125C187.93 469.553 186.838 470.068 186.838 470.068C186.838 470.068 188.082 471.859 187.141 473.922C186.201 475.985 183.561 477.988 181.164 477.957C181.164 477.957 177.826 480.294 174.155 479.748C170.483 479.202 171.727 479.08 170.271 479.232C168.814 479.384 164.657 477.806 164.991 474.832C164.991 474.832 162.291 472.223 164.354 469.644C166.447 467.064 167.57 465.244 168.571 461.967C169.573 458.69 173.73 457.598 175.429 458.174Z" fill="#1A1A1A"/>
<path d="M179.526 474.984C179.526 474.984 179.859 479.292 180.314 479.656C180.77 480.021 181.407 480.627 180.921 481.72C180.436 482.812 177.796 482.448 176.522 481.963C175.308 481.507 174.458 480.567 174.458 480.567L174.337 473.679L179.526 474.984Z" fill="#F7A491"/>
<path d="M178.008 476.956C177.158 476.744 175.641 476.349 174.336 474.65L174.306 473.679L179.525 474.984C179.525 474.984 179.616 476.046 179.738 477.138C179.04 477.199 178.402 477.047 178.008 476.956Z" fill="#F48C7F"/>
<path d="M172.182 469.916C172.182 469.916 171.788 467.397 170.271 468.065C168.753 468.733 170.362 472.434 171.636 472.161C172.941 471.888 172.182 469.916 172.182 469.916Z" fill="#F7A491"/>
<path d="M176.886 460.116C176.886 460.116 179.313 459.812 180.77 461.572C182.226 463.332 184.138 468.612 182.499 472.556C180.83 476.501 178.13 475.864 177.007 475.621C175.884 475.348 173.669 474.741 172.213 471.373C170.726 467.974 170.665 460.055 176.886 460.116Z" fill="#F7A491"/>
<path d="M226.526 500.411L231.016 521.772L223.279 521.013L219.577 501.473L226.526 500.411Z" fill="#F7A491"/>
<path d="M227.862 501.018L219.578 501.473C219.578 501.473 218.971 495.738 218.819 493.007C218.637 489.7 218.698 485.391 219.123 485.452C220.276 485.664 221.823 486.18 222.764 487.394C226.102 491.551 227.862 501.018 227.862 501.018Z" fill="#5184CE"/>
<path d="M222.401 492.278C222.613 493.279 227.862 521.225 227.862 521.225C215.452 528.052 205.955 522.226 205.955 522.226C205.955 522.226 206.44 503.444 205.803 500.835C205.378 499.105 203.861 487.757 204.953 487.393C206.38 486.907 208.534 486.179 210.324 485.906C211.872 485.663 217.849 485.269 218.941 485.572C218.941 485.542 221.581 488.06 222.401 492.278Z" fill="#EAFCFC"/>
<path d="M217.94 465.637C217.94 465.637 222.976 465.546 222.552 469.733C222.552 469.733 226.284 471.19 223.796 474.558C223.796 474.558 226.466 478.169 221.823 481.658C221.823 481.658 220.579 486.513 215.36 484.207C215.36 484.207 213.813 485.36 211.659 483.813C209.504 482.265 209.231 481.355 209.231 481.355C209.231 481.355 204.498 480.444 205.135 476.105C205.135 476.105 202.647 473.981 206.409 471.311C206.409 471.311 206.349 465.334 211.416 466.123C211.446 466.092 214.42 461.541 217.94 465.637Z" fill="#13375B"/>
<path d="M210.08 475.437C209.959 476.499 209.261 477.288 208.533 477.197C207.804 477.106 207.349 476.166 207.471 475.104C207.592 474.042 208.29 473.253 209.018 473.344C209.746 473.435 210.232 474.375 210.08 475.437Z" fill="#F7A491"/>
<path d="M221.884 478.655C221.428 479.626 220.549 480.172 219.881 479.868C219.213 479.565 219.031 478.533 219.487 477.562C219.942 476.591 220.822 476.045 221.489 476.349C222.157 476.652 222.308 477.684 221.884 478.655Z" fill="#F7A491"/>
<path d="M215.815 481.901C215.815 481.962 216.24 484.723 216.453 486.149C216.544 486.695 216.24 487.211 215.724 487.393C214.359 487.909 211.689 488.546 210.02 486.786C209.868 486.635 209.808 486.392 209.808 486.179L210.505 479.777L215.815 481.901Z" fill="#F7A491"/>
<path d="M216.24 484.662C214.783 485.269 210.596 484.753 210.262 482.113L210.505 479.807L215.815 481.901C215.815 481.931 216.118 483.812 216.24 484.662Z" fill="#F48C7F"/>
<path d="M217.181 468.884C217.181 468.884 214.966 468.398 212.872 469.703C210.748 471.008 207.319 476.166 210.202 480.657C213.054 485.148 217.939 482.933 219.638 479.382C221.338 475.832 222.066 470.553 217.181 468.884Z" fill="#F7A491"/>
<path d="M215.815 479.959L212.872 479.777C212.872 479.777 212.872 480.9 214.177 481.021C215.755 481.173 215.815 479.959 215.815 479.959Z" fill="white"/>
<path d="M220.944 471.372C220.944 471.372 218.789 470.219 217.212 470.371C215.603 470.522 210.415 474.315 209.656 473.678C208.898 473.041 209.869 469.703 210.475 469.218C211.082 468.732 213.479 467.276 213.692 467.245C213.904 467.215 216.089 467.245 216.453 467.367C216.817 467.458 219.548 468.762 219.548 468.762L220.944 471.372Z" fill="#13375B"/>
<path d="M189.812 523.744C189.842 523.623 189.964 523.623 190.085 523.592C191.178 523.532 192.27 523.441 193.362 523.259C193.544 523.228 193.726 523.168 193.878 523.107C194.181 522.986 194.485 522.955 194.788 523.046C194.97 523.077 195.122 523.077 195.304 523.077C195.85 523.046 197.428 522.47 198.217 522.318C198.399 522.288 198.551 522.136 198.581 521.954C199.279 518.768 200.766 511.668 200.918 509.331C201.1 506.358 202.738 492.885 202.738 492.885L208.261 494.251C208.261 494.251 206.319 504.203 205.833 509.028C205.469 512.73 202.01 520.71 200.918 523.016C200.402 524.715 199.127 524.806 198.854 524.836C198.672 524.867 198.52 524.958 198.429 525.079C198.247 525.322 198.005 525.534 197.762 525.716C197.58 525.838 197.428 526.02 197.307 526.202C197.094 526.536 196.882 526.9 196.7 527.264C196.579 527.507 196.427 527.598 196.214 527.537C196.002 527.476 195.881 527.325 195.881 527.051C195.881 526.657 196.002 526.293 196.184 525.959C196.366 525.625 196.336 525.443 196.123 525.17C196.002 525.018 195.85 524.867 195.699 524.715C195.517 524.594 195.365 524.503 195.122 524.533C194.728 524.654 194.333 524.745 193.939 524.806L193.605 524.897L193.423 524.927C193.393 524.927 192.816 525.018 192.604 525.018C192.452 525.018 192.179 525.049 191.966 525.049C191.754 525.079 191.329 524.988 191.329 524.988C191.147 524.988 190.965 524.927 190.813 524.806C190.753 524.745 190.692 524.685 190.722 524.594C190.753 524.503 190.813 524.472 190.904 524.442C191.026 524.412 191.724 524.321 191.693 524.29C191.481 524.29 190.844 524.29 190.662 524.29C190.389 524.29 190.146 524.199 189.964 524.017C189.873 523.956 189.782 523.865 189.812 523.744Z" fill="#F7A491"/>
<path d="M199.036 500.986L207.047 504.87C207.047 504.87 208.291 498.984 209.231 495.343C210.051 492.217 206.045 486.634 204.71 487.393C201.767 489.092 199.036 500.986 199.036 500.986Z" fill="#5184CE"/>
<path d="M253.229 490.61L324.534 493.644C324.534 493.644 318.314 514.459 318.162 515.491C318.01 516.523 294.616 529.297 288.73 529.145C282.843 528.993 269.128 524.078 266.185 523.198C263.242 522.318 255.565 516.341 256.02 512.669C256.506 508.998 253.229 490.61 253.229 490.61Z" fill="#F7CC7F"/>
<path d="M273.739 501.17H254.593C254.107 501.17 253.743 500.776 253.743 500.32V498.682C253.743 498.196 254.138 497.832 254.593 497.832H273.739C274.225 497.832 274.589 498.227 274.589 498.682V500.32C274.619 500.776 274.225 501.17 273.739 501.17Z" fill="#EAB054"/>
<path d="M282.023 461.451L291.672 465.426L291.126 463.423L287.515 461.451C287.515 461.451 284.572 460.875 284.268 460.723C284.026 460.571 282.023 461.451 282.023 461.451Z" fill="#F7CC7F"/>
<path opacity="0.6" d="M328.083 486.878L252.651 480.415V485.451C252.651 488.304 254.836 490.67 257.628 490.761L324.442 493.462C325.99 493.523 327.477 492.825 328.357 491.52C329.115 490.428 329.449 488.88 328.083 486.878Z" fill="#C5DDF9"/>
<path opacity="0.7" d="M252.651 480.414V479.716L327.81 486.513L328.083 486.877L252.651 480.414Z" fill="#C5DDF9"/>
<path opacity="0.2" d="M270.038 491.278L276.895 491.581L282.539 482.994L275.863 482.417L270.038 491.278Z" fill="white"/>
<path opacity="0.2" d="M282.235 491.793L287.727 483.419L285.178 483.206L279.625 491.672L282.235 491.793Z" fill="white"/>
<path d="M150.487 490.883L236.63 491.732L237.389 519.041C237.389 519.041 227.315 533.666 226.102 533.514C224.888 533.363 199.157 529.236 196.851 529.388C194.545 529.539 174.367 519.648 173.426 519.83C172.486 520.042 166.175 516.644 166.175 516.644L155.919 509.422L145.754 498.954L150.487 490.883Z" fill="#F7CC7F"/>
<path d="M167.934 499.469H148.788C148.302 499.469 147.938 499.075 147.938 498.62V496.981C147.938 496.496 148.332 496.132 148.788 496.132H167.934C168.419 496.132 168.783 496.526 168.783 496.981V498.62C168.783 499.105 168.389 499.469 167.934 499.469Z" fill="#EAB054"/>
<path d="M180.678 471.069L177.704 471.645C177.704 471.645 177.977 472.768 179.312 472.556C180.89 472.283 180.678 471.069 180.678 471.069Z" fill="white"/>
<path d="M171.423 468.217C171.423 468.217 178.159 465.122 178.827 460.297C179.495 455.473 173.305 460.085 173.305 460.085L170.786 462.482L171.423 468.217Z" fill="#1A1A1A"/>
<path d="M255.109 490.003C255.109 490.003 256.353 490.853 257.931 490.822C257.931 490.822 255.837 491.46 255.777 491.429C255.716 491.369 254.654 490.519 254.684 490.519C254.684 490.458 255.109 490.003 255.109 490.003Z" fill="#F7CC7F"/>
<path d="M261.602 458.81L270.037 459.356C270.037 459.356 268.671 457.08 268.065 457.08C267.458 457.08 263.635 457.08 263.635 457.08L261.602 458.81Z" fill="#F7CC7F"/>
<path d="M554.91 583.647H6.09039C4.93518 583.647 4 582.712 4 581.557C4 580.401 4.93518 579.466 6.09039 579.466H554.91C556.065 579.466 557 580.401 557 581.557C556.982 582.712 556.065 583.647 554.91 583.647Z" fill="#183658"/>
<path d="M480.371 318.107C480.371 167.877 129.136 230.237 129.136 57.4362" stroke="#75BF7A" stroke-width="4.04932" stroke-linecap="round" stroke-linejoin="round" stroke-dasharray="12.15 12.15"/>
<path d="M476.977 314.463C482.923 314.47 488.622 316.835 492.826 321.039C497.03 325.243 499.395 330.942 499.402 336.888C499.409 341.746 497.822 346.473 494.885 350.343C494.885 350.343 494.273 351.148 494.173 351.264L476.977 371.545L459.773 351.254C459.683 351.146 459.07 350.343 459.07 350.343L459.068 350.337C456.131 346.469 454.545 341.744 454.552 336.888C454.559 330.942 456.924 325.243 461.128 321.039C465.332 316.835 471.032 314.47 476.977 314.463ZM476.977 345.042C478.59 345.042 480.167 344.564 481.508 343.668C482.849 342.772 483.894 341.498 484.511 340.008C485.128 338.518 485.29 336.879 484.975 335.297C484.66 333.715 483.884 332.262 482.743 331.122C481.603 329.981 480.15 329.204 478.568 328.89C476.986 328.575 475.347 328.737 473.857 329.354C472.367 329.971 471.093 331.016 470.197 332.357C469.301 333.698 468.823 335.275 468.823 336.888C468.825 339.05 469.685 341.122 471.214 342.651C472.743 344.18 474.815 345.04 476.977 345.042Z" fill="#75BF7A"/>
<path d="M129.546 1.04541C135.491 1.05242 141.191 3.41731 145.395 7.62131C149.599 11.8253 151.964 17.5251 151.971 23.4705C151.978 28.329 150.391 33.0558 147.453 36.9255C147.453 36.9255 146.841 37.7308 146.742 37.847L129.546 58.1274L112.341 37.8368C112.252 37.7288 111.638 36.9255 111.638 36.9255L111.636 36.9194C108.7 33.0513 107.113 28.3268 107.12 23.4705C107.127 17.5251 109.492 11.8253 113.696 7.62131C117.9 3.41731 123.6 1.05242 129.546 1.04541ZM129.546 31.6251C131.158 31.6251 132.735 31.1468 134.076 30.2508C135.417 29.3547 136.462 28.0812 137.079 26.5911C137.697 25.1011 137.858 23.4615 137.543 21.8796C137.229 20.2978 136.452 18.8448 135.312 17.7043C134.171 16.5639 132.718 15.7873 131.136 15.4726C129.555 15.158 127.915 15.3194 126.425 15.9366C124.935 16.5539 123.661 17.599 122.765 18.9401C121.869 20.2811 121.391 21.8577 121.391 23.4705C121.394 25.6324 122.254 27.705 123.782 29.2337C125.311 30.7624 127.384 31.6224 129.546 31.6251Z" fill="#75BF7A"/>
</g>
<defs>
<filter id="filter0_d_2204_3" x="0" y="0.833984" width="561" height="590.813" filterUnits="userSpaceOnUse" color-interpolation-filters="sRGB">
<feFlood flood-opacity="0" result="BackgroundImageFix"/>
<feColorMatrix in="SourceAlpha" type="matrix" values="0 0 0 0 0 0 0 0 0 0 0 0 0 0 0 0 0 0 127 0" result="hardAlpha"/>
<feOffset dy="4"/>
<feGaussianBlur stdDeviation="2"/>
<feComposite in2="hardAlpha" operator="out"/>
<feColorMatrix type="matrix" values="0 0 0 0 0 0 0 0 0 0 0 0 0 0 0 0 0 0 0.25 0"/>
<feBlend mode="normal" in2="BackgroundImageFix" result="effect1_dropShadow_2204_3"/>
<feBlend mode="normal" in="SourceGraphic" in2="effect1_dropShadow_2204_3" result="shape"/>
</filter>
</defs>
</svg>
